<?xml version="1.0" encoding="utf-8"?>
<!-- Generator: Adobe Illustrator 19.0.0, SVG Export Plug-In . SVG Version: 6.00 Build 0)  -->
<svg version="1.1" id="Layer_1" xmlns="http://www.w3.org/2000/svg" xmlns:xlink="http://www.w3.org/1999/xlink" x="0px" y="0px"
	 width="200.7px" height="30.7px" viewBox="-205 382 200.7 30.7" style="enable-background:new -205 382 200.7 30.7;"
	 xml:space="preserve">
<style type="text/css">
	.st0{fill:#FFFFFF;}
	.st1{fill:#FFC03E;}
</style>
<path class="st0" d="M-204.6,411v-27h8.3c2.4,0,4.5,0.5,6.4,1.6c1.9,1.1,3.3,2.6,4.4,4.6c1.1,2,1.6,4.2,1.6,6.7v1.2
	c0,2.5-0.5,4.7-1.6,6.7c-1,2-2.5,3.5-4.4,4.5c-1.9,1.1-4,1.6-6.4,1.6H-204.6z M-199,388.5v18h2.7c2.2,0,3.8-0.7,5-2.1
	c1.2-1.4,1.7-3.5,1.8-6.1v-1.4c0-2.7-0.6-4.8-1.7-6.2c-1.1-1.4-2.8-2.1-5-2.1H-199z M-171,411.4c-2.9,0-5.3-0.9-7.2-2.7
	c-1.8-1.8-2.8-4.2-2.8-7.2v-0.5c0-2,0.4-3.8,1.2-5.4c0.8-1.6,1.9-2.8,3.3-3.7c1.4-0.9,3.1-1.3,4.9-1.3c2.7,0,4.9,0.9,6.5,2.6
	c1.6,1.7,2.4,4.2,2.4,7.4v2.2h-12.8c0.2,1.3,0.7,2.4,1.6,3.2c0.9,0.8,2,1.2,3.3,1.2c2.1,0,3.7-0.7,4.8-2.2l2.6,3
	c-0.8,1.1-1.9,2-3.3,2.7C-167.8,411.1-169.3,411.4-171,411.4z M-171.6,394.9c-1.1,0-1.9,0.4-2.6,1.1c-0.7,0.7-1.1,1.7-1.3,3.1h7.5
	v-0.4c0-1.2-0.3-2.1-1-2.7C-169.6,395.2-170.5,394.9-171.6,394.9z M-148.8,405.5c0-0.7-0.3-1.2-1-1.5c-0.6-0.4-1.7-0.7-3.1-1
	c-4.8-1-7.2-3-7.2-6.1c0-1.8,0.7-3.3,2.2-4.5c1.5-1.2,3.4-1.8,5.8-1.8c2.5,0,4.6,0.6,6.1,1.8c1.5,1.2,2.3,2.8,2.3,4.7h-5.4
	c0-0.8-0.2-1.4-0.7-1.9c-0.5-0.5-1.3-0.8-2.3-0.8c-0.9,0-1.6,0.2-2.1,0.6c-0.5,0.4-0.7,0.9-0.7,1.6c0,0.6,0.3,1.1,0.8,1.4
	c0.6,0.4,1.5,0.7,2.9,0.9c1.3,0.3,2.5,0.6,3.4,0.9c2.8,1,4.2,2.8,4.2,5.4c0,1.8-0.8,3.3-2.4,4.5c-1.6,1.1-3.6,1.7-6.1,1.7
	c-1.7,0-3.2-0.3-4.5-0.9c-1.3-0.6-2.3-1.4-3.1-2.5c-0.7-1.1-1.1-2.2-1.1-3.4h5.1c0,1,0.4,1.7,1.1,2.2c0.7,0.5,1.5,0.8,2.6,0.8
	c1,0,1.8-0.2,2.3-0.6C-149.1,406.6-148.8,406.1-148.8,405.5z M-133.7,386v4.9h3.4v3.9h-3.4v10c0,0.7,0.1,1.3,0.4,1.6
	c0.3,0.3,0.8,0.5,1.6,0.5c0.6,0,1.1,0,1.6-0.1v4.1c-1.1,0.3-2.1,0.5-3.2,0.5c-3.8,0-5.7-1.9-5.8-5.7v-10.8h-2.9v-3.9h2.9V386H-133.7
	z M-128.7,400.8c0-2,0.4-3.8,1.2-5.3c0.8-1.6,1.9-2.8,3.3-3.6c1.4-0.9,3.1-1.3,5-1.3c2.7,0,4.9,0.8,6.6,2.5c1.7,1.7,2.7,3.9,2.9,6.8
	l0,1.4c0,3.1-0.9,5.6-2.6,7.4c-1.7,1.9-4,2.8-6.9,2.8c-2.9,0-5.2-0.9-6.9-2.8c-1.7-1.9-2.6-4.4-2.6-7.6V400.8z M-123.3,401.2
	c0,1.9,0.4,3.4,1.1,4.4c0.7,1,1.7,1.5,3.1,1.5c1.3,0,2.3-0.5,3-1.5c0.7-1,1.1-2.6,1.1-4.8c0-1.9-0.4-3.3-1.1-4.3
	c-0.7-1-1.8-1.5-3.1-1.5c-1.3,0-2.3,0.5-3,1.5C-122.9,397.4-123.3,399-123.3,401.2z M-98,407c1,0,1.8-0.3,2.4-0.8
	c0.6-0.5,0.9-1.3,1-2.2h5c0,1.4-0.4,2.6-1.1,3.7c-0.7,1.1-1.7,2-3,2.6c-1.3,0.6-2.7,0.9-4.2,0.9c-2.9,0-5.1-0.9-6.8-2.7
	c-1.7-1.8-2.5-4.4-2.5-7.6v-0.4c0-3.1,0.8-5.6,2.5-7.4c1.6-1.8,3.9-2.8,6.8-2.8c2.5,0,4.5,0.7,6,2.2c1.5,1.4,2.3,3.3,2.3,5.7h-5
	c0-1-0.3-1.9-1-2.5c-0.6-0.7-1.4-1-2.4-1c-1.3,0-2.2,0.5-2.8,1.4c-0.6,0.9-0.9,2.4-0.9,4.4v0.6c0,2.1,0.3,3.6,0.9,4.5
	C-100.2,406.6-99.3,407-98,407z M-79.2,402.9l-1.9,1.9v6.1h-5.4v-28.5h5.4v15.8l1-1.3l5.1-6h6.4l-7.3,8.4l7.9,11.7h-6.2L-79.2,402.9
	z"/>
<path class="st1" d="M-65.9,411v-27h8.3c2.4,0,4.5,0.5,6.4,1.6c1.9,1.1,3.3,2.6,4.4,4.6c1.1,2,1.6,4.2,1.6,6.7v1.2
	c0,2.5-0.5,4.7-1.6,6.7c-1,2-2.5,3.5-4.4,4.5c-1.9,1.1-4,1.6-6.4,1.6H-65.9z M-60.3,388.5v18h2.7c2.2,0,3.8-0.7,5-2.1
	c1.1-1.4,1.7-3.5,1.8-6.1v-1.4c0-2.7-0.6-4.8-1.7-6.2c-1.1-1.4-2.8-2.1-5-2.1H-60.3z M-35.9,411h-5.4v-20.1h5.4V411z M-41.5,385.7
	c0-0.8,0.3-1.5,0.8-2c0.5-0.5,1.3-0.8,2.2-0.8c0.9,0,1.6,0.3,2.2,0.8c0.5,0.5,0.8,1.2,0.8,2c0,0.8-0.3,1.5-0.8,2
	c-0.5,0.5-1.3,0.8-2.2,0.8s-1.6-0.3-2.2-0.8C-41.3,387.2-41.5,386.5-41.5,385.7z M-20.5,405.5c0-0.7-0.3-1.2-1-1.5
	c-0.6-0.4-1.7-0.7-3.1-1c-4.8-1-7.2-3-7.2-6.1c0-1.8,0.7-3.3,2.2-4.5c1.5-1.2,3.4-1.8,5.8-1.8c2.5,0,4.6,0.6,6.1,1.8
	c1.5,1.2,2.3,2.8,2.3,4.7h-5.4c0-0.8-0.2-1.4-0.7-1.9c-0.5-0.5-1.3-0.8-2.3-0.8c-0.9,0-1.6,0.2-2.1,0.6c-0.5,0.4-0.7,0.9-0.7,1.6
	c0,0.6,0.3,1.1,0.8,1.4c0.6,0.4,1.5,0.7,2.9,0.9c1.3,0.3,2.5,0.6,3.4,0.9c2.8,1,4.2,2.8,4.2,5.4c0,1.8-0.8,3.3-2.4,4.5
	c-1.6,1.1-3.6,1.7-6.1,1.7c-1.7,0-3.2-0.3-4.5-0.9c-1.3-0.6-2.3-1.4-3.1-2.5c-0.7-1.1-1.1-2.2-1.1-3.4h5.1c0.1,1,0.4,1.7,1.1,2.2
	c0.7,0.5,1.5,0.8,2.6,0.8c1,0,1.8-0.2,2.3-0.6C-20.8,406.6-20.5,406.1-20.5,405.5z M-11.6,408.4c0-0.9,0.3-1.5,0.9-2.1
	c0.6-0.5,1.3-0.8,2.2-0.8c0.9,0,1.6,0.3,2.2,0.8c0.6,0.5,0.9,1.2,0.9,2.1c0,0.8-0.3,1.5-0.9,2.1c-0.6,0.5-1.3,0.8-2.2,0.8
	c-0.9,0-1.6-0.3-2.2-0.8C-11.3,409.9-11.6,409.2-11.6,408.4z"/>
</svg>
